<?xml version="1.0" encoding="utf-8"?>
<!-- Svg Vector Icons : http://www.onlinewebfonts.com/icon -->
<!DOCTYPE svg PUBLIC "-//W3C//DTD SVG 1.1//EN" "http://www.w3.org/Graphics/SVG/1.1/DTD/svg11.dtd">
<svg version="1.1" xmlns="http://www.w3.org/2000/svg" xmlns:xlink="http://www.w3.org/1999/xlink" x="0px" y="0px" viewBox="0 0 1000 1000" enable-background="new 0 0 1000 1000" xml:space="preserve">
<metadata> Svg Vector Icons : http://www.onlinewebfonts.com/icon </metadata>
<g><g transform="translate(0.000000,511.000000) scale(0.100000,-0.100000)"><path style="fill:#fff;" d="M3833.6,4979.2c-30.8-15.4-121.1-68.3-200.4-118.9c-651.9-400.8-1380.8-640.9-2244.1-740c-319.3-37.4-330.3-33-330.3,140.9c0,105.7,44,176.2,112.3,176.2c222.4,0,336.9,207,180.6,330.3c-70.5,55.1-187.2,55.1-303.9,2.2c-281.9-127.7-425-427.2-330.3-678.3c44-114.5,185-279.7,279.7-328.1l61.7-33V-44.2v-3774.7l50.6-57.2c41.9-50.6,74.9-61.7,235.6-79.3c321.5-35.3,286.3,17.6,286.3-438.3V-4790h176.2h176.2v374.4c0,336.9,4.4,374.4,37.4,374.4c19.8,0,676.1-74.9,1457.9-169.6c781.8-92.5,1466.7-167.4,1521.8-167.4c55,0,735.6,74.9,1515.1,167.4c779.6,94.7,1435.9,169.6,1460.1,169.6c39.6,0,41.8-19.8,41.8-374.4V-4790H8194h176.2v396.4c0,218,2.2,396.4,6.6,398.6c2.2,0,107.9,13.2,235.6,30.8c202.6,24.2,235.6,35.2,279.7,88.1l50.6,57.2V-44.2v3774.6l61.7,33c94.7,48.5,235.6,213.6,279.7,328.1c118.9,314.9-165.2,717.9-508.7,720.1c-147.6,0-240-136.5-176.2-262.1c35.2-66.1,52.8-74.9,189.4-101.3c118.9-24.2,154.2-68.3,154.2-189.4c0-118.9-44.1-180.6-116.7-163c-26.4,4.4-152,22-279.7,35.2c-792.8,81.5-1609.8,361.2-2248.5,770.8L6130.5,5010H5009.6C4108.9,5010,3877.6,5003.4,3833.6,4979.2z M4802.6,319.2v-4318.6l-70.5,13.2c-39.6,6.6-755.4,90.3-1592.2,187.2c-834.6,96.9-1561.4,182.8-1612,189.4l-94.7,13.2V79.2v3673.3l72.7,11c37.4,6.6,149.8,24.2,246.7,37.4c352.4,48.4,845.7,178.4,1211.2,321.5c224.6,88.1,682.7,312.7,880.9,433.8l132.1,79.3h414h411.8V319.2z M6101.9,4589.4c665.1-407.4,1416-682.7,2162.6-790.6c160.8-24.2,295.1-44,299.5-44c2.2,0,4.4-1653.9,4.4-3675.5v-3675.5l-92.5-13.2c-52.8-6.6-777.4-92.5-1614.2-189.4c-834.6-96.9-1552.6-180.6-1590-187.2l-72.7-13.2V319.2v4316.4h414C5994,4635.6,6031.4,4631.2,6101.9,4589.4z"/><path style="fill:#fff;" d="M1807.5-451.6v-1497.5h187.2h187.2v1497.5V1046h-187.2h-187.2V-451.6z"/><path style="fill:#fff;" d="M7819.7-451.6v-1497.5h187.2H8194v1497.5V1046h-187.2h-187.2V-451.6z"/></g></g>
</svg>
